# xmcd
#
# Track frame offsets:
#	150
#	20338
#	42280
#	63296
#	81565
#	102429
#	122459
#	143333
#
# Disc length: 2166 seconds
#
# Revision: 0
# Processed by: cddbd v1.5.2PL0 Copyright (c) Steve Scherf et al.
# Submitted via: EasyCDDAExtractor 10.0.5.1
#
DISCID=60087408
DTITLE=Toofun - Tango
DYEAR=2006
DGENRE=Pop
TTITLE0=Tango
TTITLE1=Telephone
TTITLE2=Toe Begoo Del Man
TTITLE3=Man Takam Allah
TTITLE4=Toe Biya Yaadam Bedeh
TTITLE5=Aasheghetam Dobaareh
TTITLE6=Ajab Haaliye Emshab
TTITLE7=Yashar ~ji
EXTD=
EXTT0=
EXTT1=
EXTT2=
EXTT3=
EXTT4=
EXTT5=
EXTT6=
EXTT7=
PLAYORDER=
